<svg width="152" height="30" viewBox="0 0 152 30" fill="none" xmlns="http://www.w3.org/2000/svg">
<path d="M16 8.91204C16.1511 9.50426 16.459 10.0448 16.8912 10.477C17.3233 10.9092 17.8639 11.217 18.4561 11.3682H22.3158L22.4912 11.4033V21.0875H24.8772V11.4384L25.1228 11.3331H28.9825C29.573 11.1786 30.1118 10.8696 30.5435 10.438C30.9751 10.0063 31.2841 9.46752 31.4386 8.87695H16V8.91204ZM99.7193 8.91204H97.3333V21.1226H108.281C108.799 20.9265 109.262 20.6066 109.629 20.1908C109.996 19.7749 110.256 19.2757 110.386 18.7366H99.7544V8.87695L99.7193 8.91204ZM81.3684 11.298C82.6316 10.9471 83.6842 9.96467 83.9649 8.87695L70.5965 8.91204V16.1401H81.5088V18.6664H72.9474C72.2937 18.8365 71.6836 19.1433 71.1573 19.5668C70.6311 19.9902 70.2008 20.5205 69.8947 21.1226H83.8947V13.7541H72.9474V11.298H81.3684ZM122.14 21.1226H124.491V16.2103H133.123V21.1226H135.474V13.7541H122.14V21.1226ZM45.9298 11.3331H55.0526C55.653 11.1911 56.2028 10.8869 56.6421 10.4538C57.0814 10.0207 57.3933 9.47523 57.5439 8.87695L43.4737 8.87695C43.6213 9.47085 43.928 10.0133 44.3607 10.446C44.7935 10.8788 45.3359 11.1854 45.9298 11.3331ZM45.9298 16.1752H55.0526C55.653 16.0332 56.2028 15.729 56.6421 15.2959C57.0814 14.8628 57.3933 14.3173 57.5439 13.7191H43.4737C43.6213 14.313 43.928 14.8554 44.3607 15.2881C44.7935 15.7209 45.3359 16.0275 45.9298 16.1752ZM45.9298 21.1226H55.0526C55.653 20.9806 56.2028 20.6764 56.6421 20.2433C57.0814 19.8102 57.3933 19.2647 57.5439 18.6664H43.4737C43.6213 19.2603 43.928 19.8028 44.3607 20.2355C44.7935 20.6682 45.3359 20.9749 45.9298 21.1226ZM124.246 11.3331H133.368C133.962 11.1854 134.505 10.8788 134.938 10.446C135.37 10.0133 135.677 9.47085 135.825 8.87695L121.789 8.87695C121.937 9.47085 122.244 10.0133 122.677 10.446C123.109 10.8788 123.652 11.1854 124.246 11.3331Z" fill="white"/>
</svg>
